<?xml version="1.0" encoding="UTF-8"?>
<!-- Generator: Adobe Illustrator 24.0.0, SVG Export Plug-In . SVG Version: 6.00 Build 0)  -->
<svg xmlns="http://www.w3.org/2000/svg" xmlns:xlink="http://www.w3.org/1999/xlink" version="1.1" id="Livello_1" x="0px" y="0px" width="572.2px" height="550px" viewBox="0 0 572.2 550" style="enable-background:new 0 0 572.2 550;" xml:space="preserve">
<style type="text/css">
	.st0{display:none;}
	.st1{display:inline;fill:#384044;}
	.st2{display:inline;}
	.st3{fill:#D50926;}
	.st4{fill:#FFFFFF;}
	.st5{fill:#384044;}
	.st6{fill:#FBD63A;}
	.st7{fill:#394043;}
</style>
<g class="st0">
	<path class="st1" d="M176.9,464.3c0-10-2.1-14.7-9.1-16.4c7-1.7,9.1-6.4,9.1-16.4V415c0-13.4-3.7-17.3-17.8-17.3H134v101.7h10.7   v-47.2h11.7c8.1,0,9.6,3.3,9.6,11.3v20.1c0,6.4,0,12.5,1.5,15.8h11.4c-1.6-5.1-2.1-11.3-2.1-17.9v-17.2H176.9z M166.2,433   c0,7.7-0.8,10.3-8.6,10.3h-12.7v-36.7h12.7c8,0,8.6,2.5,8.6,10.3V433z M89.9,397.7H59.6v101.7h30.3c16.4,0,20.9-4.6,20.9-20.6V465   c0-11.5-2.3-16.9-9.6-19c7.3-2.2,9.6-7.6,9.6-19v-8.6C110.8,402.4,106.4,397.7,89.9,397.7 M92.4,476.6c0,5.7-0.5,7.4-5.9,7.4H78   v-30.4h8.5c5.2,0,5.9,1.9,5.9,7.4V476.6z M92.4,430.9c0,5.5-0.7,7.4-5.9,7.4H78v-25.1h8.5c5.4,0,5.9,1.7,5.9,7.4V430.9z M29.3,397   h-8.5C4.2,397,0,401.7,0,417.7v61.9c0,16,4.2,20.6,20.8,20.6h8.5c16.5,0,20.7-4.6,20.7-20.6v-37.9H25.6V457h7.2v20.3   c0,5.7-0.5,7.4-5.9,7.4h-2.6c-5.4,0-5.9-1.7-5.9-7.4v-57.5c0-5.7,0.5-7.4,5.9-7.4h2.6c5.4,0,5.9,1.7,5.9,7.4v13.4H50v-15.5   C50,401.7,45.8,397,29.3,397 M486,406.9c0-2.7-1.8-3.7-5-3.7h-4.8v12.6h2.5v-5.4h1.6l3.1,5.4h2.7l-3.4-5.5   C484.6,410.1,486,409.2,486,406.9 M478.7,408.4v-3.3h2.1c1.2,0,2.6,0.2,2.6,1.6c0,1.5-1.1,1.7-2.5,1.7L478.7,408.4L478.7,408.4z    M353,465.7c-0.7,4.2-1.1,9.3-1.5,14.2c-0.5-4.9-1-10-1.6-14.2l-11.6-68h-16v101.7h9.3v-68.3c0-4.6-0.2-12.2-0.3-17.9   c0.7,5.7,1.6,12.9,2.6,17.9l12.4,68.3h9.6l12.2-68.3c0.8-4.5,1.5-11,2.3-16.4c-0.2,5.2-0.3,11.8-0.3,16.4v68.3h10.6V397.7h-16.1   L353,465.7z M418.6,397.7h-25.1v101.7h25.1c14,0,17.8-3.9,17.8-17.3v-19.9c0-10-2.1-14.7-9.1-16.3c7-1.7,9.1-6.4,9.1-16.4V415   C436.3,401.7,432.6,397.7,418.6,397.7 M425.6,480.3c0,7.8-0.7,10.3-8.6,10.3h-12.7v-40.2H417c7.8,0,8.6,2.6,8.6,10.3V480.3z    M425.6,431.2c0,7.8-0.8,10.3-8.6,10.3h-12.7v-34.9H417c8,0,8.6,2.5,8.6,10.3V431.2z M447.3,499.4H458V397.7h-10.7V499.4z    M480.7,398.3c-6.2,0-11.8,4.4-11.8,11.2c0,6.9,5.5,11.3,11.8,11.3c6.2,0,11.8-4.4,11.8-11.3S487,398.3,480.7,398.3 M480.7,418.3   c-4.8,0-8.6-3.7-8.6-8.9c0-5.1,3.8-8.8,8.6-8.8c4.8,0,8.6,3.7,8.6,8.8C489.4,414.6,485.5,418.3,480.7,418.3 M190.8,499.4h10.7   V397.7h-10.7V499.4z M281.8,397.7l-16,101.7h9.6L278,483h20.8l2.8,16.4h10.8l-15.8-101.7H281.8z M279.4,474.2l3.4-21.5   c2.9-18.4,4.7-34.4,5.7-46.2c1.1,11.8,3.1,27.6,5.9,46.2l3.3,21.5H279.4z M240,397h-7c-14,0-17.8,3.9-17.8,17.3v68.6   c0,13.4,3.7,17.3,17.8,17.3h7c14,0,17.6-3.9,17.6-17.3v-24.3h-10.3V481c0,7.8-0.5,10.3-8.5,10.3h-4.2c-8,0-8.5-2.5-8.5-10.3v-64.8   c0-7.8,0.5-10.3,8.5-10.3h4.2c8,0,8.5,2.5,8.5,10.3v18h10.3v-19.9C257.6,400.9,254,397,240,397"></path>
	<g class="st2">
		<g>
			<polygon class="st3" points="343.8,132.7 229,327.7 114.2,132.7    "></polygon>
			<path class="st4" d="M227,162v-10.2h-20.2c0,0-3.6,0.3-5,4.9C200.5,161.2,188,215,188,215s-0.5,4.2,1,7.6     c1.5,3.4,17.8,30.7,17.8,30.7s1.4,2.7,4.3,2.7h11.3c0,0,4.3,0.3,4.3-4.2l0.2-47.5l-20.5,9.1l4.1,8.7l6.3-2.2v26.5     c0,0-2.5,1.3-4.1-2.2c-1.6-3.4-14-23.5-14-23.5s-1.7-1.7-0.5-5.4s12-51.1,12-51.1s0.8-2.3,2.4-2.3C214,161.9,227,162,227,162"></path>
			<path class="st4" d="M242.6,207.1l-0.1,38.9c0,0,1.5,0.3,3.3-1.5s12.4-21.3,12.4-21.3s1.2-1.2,0-2.4     C256.9,219.7,242.6,207.1,242.6,207.1 M242.6,198l11.8-5.3c0,0,1.4-0.3,0.6-3c-0.8-2.7-6.2-26.9-6.2-26.9s-0.2-1.6-1.6-1.6h-4.6     V198z M232.6,256V151.8h19.9c0,0,3.9,1.5,4.9,4.8c1,3.4,8.7,37.7,8.7,37.7s0.5,2.5-1.8,4.7c-2.3,2.3-9.9,4.7-9.9,4.7l14.7,13.6     c0,0,2.2,2.8,0,6.7S252,252.6,252,252.6s-1.4,3.2-5.4,3.2C242.6,255.9,232.6,256,232.6,256"></path>
		</g>
		<path class="st5" d="M253.8,347.4l29.7-7.8l1.1-27.1c6.1-2.9,11.9-6.1,17.4-9.9l24.4,12.6L348,294l-13-24.2    c3.7-5.3,6.9-10.9,9.8-16.8l28-1.1l7.9-29.1l-24-14.8c0.4-6.2,0.4-12.5-0.2-18.8l24.2-14.9l-7.9-29.1l-13.8-0.5L246.4,335.9    L253.8,347.4z"></path>
		<path class="st5" d="M342.3,113.8l5.7-10.6l-21.7-21.3l-26.2,13.5c-5-3.2-10.2-6.2-15.6-8.7l-1.1-29.1l-29.7-7.8l-15.9,24.8    c-5.8-0.4-11.7-0.4-17.6,0l-16-24.8l-29.6,7.8L173.5,87c-5.3,2.5-10.4,5.4-15.3,8.6l-26.4-13.7L110,103.2l5.7,10.6    C115.7,113.8,342.3,113.8,342.3,113.8z"></path>
		<path class="st5" d="M99.1,144.7l-13.8,0.5l-7.9,29.1l24.6,15.2c-0.5,6-0.5,12.1-0.1,18.2l-24.5,15.2l7.9,29.1l28.5,1.1    c2.7,5.7,5.9,11.2,9.4,16.3L110,294l21.7,21.3l24.8-12.8c5.4,3.7,11.1,6.9,17,9.7l1.1,27.3l29.6,7.8l7.4-11.5L99.1,144.7z"></path>
	</g>
</g>
<rect x="192.5" y="123.8" class="st6" width="153.2" height="153.2"></rect>
<path class="st7" d="M297.2,228.3c0-12.8-12.7-23.2-28.4-23.2c-7.7,0-14.6,2.5-19.7,6.5v3v30.3V258l9.7,6v-14.1  c3.1,1,6.5,1.5,10,1.5c2.2,0,4.3-0.2,6.4-0.6l7.6,11.5l8.3-5.3l-6.1-9.7C292.3,243.2,297.2,236.2,297.2,228.3z M268.8,241.6  c-3.7,0-7.2-0.8-10-2.2v-22.7c2.9-1.4,6.3-2.2,10-2.2c10.1,0,18.2,6.1,18.2,13.6C287,235.5,278.9,241.6,268.8,241.6z M350.3,105.9  l6.3-27.7l-25.8-14.9L309.4,83c-5.4-1.9-11-3.4-16.5-4.5l-8.6-27.7h-29.8L246,78.4c-5.7,1.1-11.3,2.5-16.8,4.4l-21.1-19.5  l-25.8,14.9l6.3,27.6C188.5,105.8,350.3,105.9,350.3,105.9z M333.9,172.6c0-1.2-0.1-2.3-0.2-3.4h-20.4l0.1,10.3l9.6,0.2  c-2.9,8-10.5,13.8-19.5,13.8c-11.5,0-20.8-9.3-20.8-20.8c0-11.5,9.3-20.8,20.8-20.8c4.3,0,8.3,1.3,11.6,3.6c1.9-2.6,3.2-5.6,5.1-8.1  c-4.8-3.2-10.6-5.1-16.7-5.1c-16.8,0-30.4,13.6-30.4,30.4c0,16.8,13.6,30.4,30.4,30.4S333.9,189.3,333.9,172.6z M238.5,151.8  c5.8,0,11,2.4,14.8,6.2c2.4-2.4,4.2-4.7,6.6-7c-5.5-5.4-13-8.7-21.3-8.7c-16.8,0-30.4,13.6-30.4,30.4c0,16.8,13.6,30.4,30.4,30.4  c8.9,0,16.9-3.8,22.4-9.9c-2.4-3-4.5-4.8-6.7-7c-3.8,4.4-9.4,7.2-15.7,7.2c-11.5,0-20.8-9.3-20.8-20.8  C217.8,161.1,227.1,151.8,238.5,151.8z M133.3,138l18.8,20.4c-2.1,5.9-3.8,11.9-5,17.9l-26.3,8.2v29.8l26,8.1  c1.1,6.3,2.8,12.5,4.9,18.5l-18.4,19.9l14.9,25.8l26.2-5.9c0.1,0.1,0.2-162.5,0.2-162.5l-26.4-6L133.3,138z M166.2,467.4  c0-11.5-2.2-17.1-9.6-19.3c7.3-2.2,9.6-7.5,9.6-19.1v-10.9c0-16-4.3-20.6-20.4-20.6h-29.7V499h18v-43.4h6.9c5.9,0,7.2,2.9,7.2,9  v18.6c0,6.4,0.2,12.5,1.9,15.8h18.7c-2.1-5.1-2.6-11.3-2.6-17.8V467.4z M148.2,432.9c0,5.5-0.6,7.4-5.7,7.4h-8.3v-27.4h8.3  c5.3,0,5.7,1.7,5.7,7.4V432.9z M28.7,396.8h-8.3C4.1,396.8,0,401.4,0,417.4v61.8c0,16,4.1,20.6,20.4,20.6h8.3  c16.1,0,20.3-4.6,20.3-20.6v-22.5H32.1V477c0,5.7-0.5,7.4-5.7,7.4h-2.6c-5.3,0-5.7-1.7-5.7-7.4v-57.4c0-5.7,0.5-7.4,5.7-7.4h2.6  c5.3,0,5.7,1.7,5.7,7.4v16H49v-18.1C49,401.4,44.8,396.8,28.7,396.8z M86.5,396.8h-8.3c-16.3,0-20.4,4.6-20.4,20.6v61.8  c0,16,4.1,20.6,20.4,20.6h8.3c16.1,0,20.3-4.6,20.3-20.6v-37.9H82.8v15.4h7V477c0,5.7-0.5,7.4-5.7,7.4h-2.6c-5.3,0-5.7-1.7-5.7-7.4  v-57.4c0-5.7,0.5-7.4,5.7-7.4h2.6c5.3,0,5.7,1.7,5.7,7.4v13.3h16.9v-15.5C106.7,401.4,102.6,396.8,86.5,396.8z M405.5,260.7  l-19.1-20.7c2-5.7,3.5-11.6,4.5-17.4l27-8.4v-29.8l-27.4-8.5c-1.1-5.7-2.7-11.3-4.6-16.8l19.6-21.2l-14.9-25.8l-27,6.1v162.1l27,6.1  L405.5,260.7z M449.8,396.8H444c-13.6,0-17.2,3.9-17.2,17.3v8c0,12.6,2.6,16.5,16.1,28c11.5,9.6,13.4,12.5,13.4,22v8.6  c0,7.8-0.6,10.3-8.3,10.3h-3c-7.7,0-8.3-2.5-8.3-10.3v-18.3h-9.9v20.2c0,13.3,3.7,17.3,17.2,17.3h5.7c13.6,0,17.1-3.9,17.1-17.3  v-10.6c0-12.6-2.6-16.7-16.1-28c-11.5-9.6-13.4-12.6-13.4-22v-6.1c0-7.7,0.6-10.2,8.3-10.2h3c7.7,0,8.3,2.5,8.3,10.3v15.4h9.9V414  C466.8,400.7,463.3,396.8,449.8,396.8z M500.3,396.8h-5.7c-13.6,0-17.2,3.9-17.2,17.3v8c0,12.6,2.6,16.5,16.1,28  c11.5,9.6,13.4,12.5,13.4,22v8.6c0,7.8-0.6,10.3-8.3,10.3h-3c-7.7,0-8.3-2.5-8.3-10.3v-18.3h-9.9v20.2c0,13.3,3.7,17.3,17.2,17.3  h5.7c13.6,0,17.1-3.9,17.1-17.3v-10.6c0-12.6-2.6-16.7-16.1-28c-11.5-9.6-13.4-12.6-13.4-22v-6.1c0-7.7,0.6-10.2,8.3-10.2h3  c7.7,0,8.3,2.5,8.3,10.3v15.4h9.9V414C517.3,400.7,513.8,396.8,500.3,396.8z M213.3,396.8h-6.9c-13.7,0-17.4,3.9-17.4,17.3v68.5  c0,13.3,3.7,17.3,17.4,17.3h6.9c13.7,0,17.2-3.9,17.2-17.3v-38.6h-20.4v8.8h10.4v27.8c0,7.8-0.5,10.3-8.3,10.3H208  c-7.8,0-8.3-2.5-8.3-10.3v-64.7c0-7.8,0.5-10.3,8.3-10.3h4.1c7.8,0,8.3,2.5,8.3,10.3v16.8h10.1V414  C230.5,400.7,227,396.8,213.3,396.8z M528.3,499h10.5V397.5h-10.5V499z M565.7,406.6c0-2.7-1.8-3.7-4.9-3.7H556v12.6h2.5v-5.4h1.6  l3.1,5.4h2.6l-3.4-5.5C564.2,409.8,565.7,408.9,565.7,406.6z M558.5,408.2v-3.3h2.1c1.1,0,2.6,0.2,2.6,1.6c0,1.5-1,1.7-2.5,1.7  H558.5z M560.5,398c-6.1,0-11.5,4.4-11.5,11.2c0,6.8,5.4,11.2,11.5,11.2c6.1,0,11.5-4.4,11.5-11.2C572,402.4,566.6,398,560.5,398z   M560.5,418.1c-4.7,0-8.5-3.7-8.5-8.9c0-5.1,3.8-8.8,8.5-8.8c4.7,0,8.5,3.7,8.5,8.8C568.9,414.3,565.1,418.1,560.5,418.1z   M389.3,397.5L373.7,499h9.4l2.6-16.4h20.4l2.7,16.4h10.5l-15.5-101.5H389.3z M386.9,473.8l3.4-21.5c2.9-18.4,4.6-34.4,5.6-46.1  c1.1,11.7,3,27.6,5.7,46.1l3.2,21.5H386.9z M299.5,499H310V397.5h-10.5V499z M355.5,459.9c0,6.4,0.3,12,0.5,17.5  c-1-5.5-2.1-11.2-3.7-17.4l-16.1-62.5h-13.6V499h9.1v-66.6c0-6.4-0.2-12-0.3-17.5c1,5.5,2.1,11.2,3.7,17.3L353,499h11.8V397.5h-9.3  V459.9z M274.5,441.4h-20.9v-43.9H243V499h10.5v-48.9h20.9V499H285V397.5h-10.5V441.4z M356.6,320.6l-5.8-25.7H188.1l-5.8,25.7  l25.8,14.9l19.7-18.2c6.2,2.2,12.5,3.9,18.8,5l7.9,25.6h29.8l8-25.9c6.3-1.2,12.4-2.9,18.5-5l20,18.5L356.6,320.6z"></path>
</svg>
