<svg width="320" height="140" viewBox="0 0 320 140" xmlns="http://www.w3.org/2000/svg">
    <rect width="320" height="140" rx="18" fill="#0b0b0f"/>
    <rect width="320" height="140" rx="18" fill="url(#grad)" opacity="0.4"/>
    <g fill="#FFD400">
        <path d="M30 30h40c34 0 54 12 54 39s-20 38-55 38H30V30zm38 55c18 0 26-6 26-17s-8-18-25-18H54v35h14z"/>
        <path d="M152 30h104v26h-37v51h-30V56h-37V30z"/>
        <path d="M294 34c-9-5-19-7-32-7-42 0-68 23-68 43 0 24 26 45 68 45 14 0 26-2 37-7V89c-11 5-23 8-34 8-22 0-36-11-36-24 0-12 14-23 36-23 12 0 24 3 35 9V34z"/>
    </g>
    <text x="30" y="120" fill="#FFD400" font-size="18" font-family="Oswald, sans-serif" letter-spacing="6">PARTS TRADING COMPANY</text>
    <defs>
        <linearGradient id="grad" x1="0" y1="0" x2="1" y2="1">
            <stop offset="0%" stop-color="#1e1e2a" stop-opacity="0.9"/>
            <stop offset="100%" stop-color="#050505" stop-opacity="0.6"/>
        </linearGradient>
    </defs>
</svg>


